<svg xmlns="http://www.w3.org/2000/svg" width="32" height="32" viewBox="0 0 32 32">
  <g id="Applicants_Details" data-name="Applicants Details" transform="translate(-1545 -175)">
    <g id="profile-user" transform="translate(1545 174.999)" opacity="0">
      <path id="Path_87334" data-name="Path 87334" d="M16,0A16,16,0,1,0,32,16,16,16,0,0,0,16,0Zm0,4.784a5.292,5.292,0,1,1-5.291,5.292A5.293,5.293,0,0,1,16,4.785Zm0,23.033A11.742,11.742,0,0,1,8.35,25a2.255,2.255,0,0,1-.791-1.714,5.337,5.337,0,0,1,5.363-5.336H19.08a5.33,5.33,0,0,1,5.355,5.336A2.25,2.25,0,0,1,23.644,25,11.738,11.738,0,0,1,16,27.818Z" fill="#747474"/>
    </g>
    <g id="_032---Employee-Details" data-name="032---Employee-Details" transform="translate(1547.854 175)">
      <circle id="Oval" cx="2.5" cy="2.5" r="2.5" transform="translate(3 2)" fill="#747474"/>
      <path id="Shape" d="M7.43,21.434a8.28,8.28,0,0,1,15.432-4.179V1.143A1.143,1.143,0,0,0,21.72,0H1.143A1.143,1.143,0,0,0,0,1.143V27.436a1.143,1.143,0,0,0,1.143,1.143h10.4A8.288,8.288,0,0,1,7.43,21.434ZM16.576,2.286h4a.572.572,0,1,1,0,1.143h-4a.572.572,0,0,1,0-1.143ZM12,2.286h2.286a.572.572,0,1,1,0,1.143H12a.572.572,0,0,1,0-1.143Zm0,2.858h8.574a.572.572,0,1,1,0,1.143H12a.572.572,0,0,1,0-1.143Zm9.145,3.429a.572.572,0,0,1-.572.572H18.29A.572.572,0,1,1,18.29,8h2.286A.572.572,0,0,1,21.148,8.574ZM12,8h4a.572.572,0,0,1,0,1.143H12A.572.572,0,0,1,12,8Zm0,2.858h8.574a.572.572,0,1,1,0,1.143H12a.572.572,0,0,1,0-1.143ZM1.458,12.689c-.008-.017-.019-.031-.026-.049a5.516,5.516,0,0,1,1.6-5.94A3.429,3.429,0,1,1,8.4,6.7a5.522,5.522,0,0,1,1.606,5.926.7.7,0,0,1-.033.063.562.562,0,0,1-.247.255c-.012.006-.019.017-.032.022s-.033.011-.049.018l-.011,0a10.9,10.9,0,0,1-7.839,0l-.011,0c-.015-.007-.033-.011-.049-.018s-.02-.016-.032-.022a.559.559,0,0,1-.247-.255Zm4.258,7.316H2.286a.572.572,0,0,1,0-1.143H5.716a.572.572,0,0,1,0,1.143Zm.572,2.286a.572.572,0,0,1-.572.572H2.286a.572.572,0,0,1,0-1.143H5.716A.572.572,0,0,1,6.287,22.291Zm0,3.429h-4a.572.572,0,0,1,0-1.143h4a.572.572,0,0,1,0,1.143Zm.572-8.574H2.286a.572.572,0,1,1,0-1.143H6.859a.572.572,0,1,1,0,1.143Z" fill="#747474"/>
      <path id="Shape-2" data-name="Shape" d="M10.7,17.612a4.3,4.3,0,0,0-1.446-4.538,3.4,3.4,0,0,1-3.646,0,3.533,3.533,0,0,0-.738.731,4.393,4.393,0,0,0-.708,3.807A9.752,9.752,0,0,0,10.7,17.612Z" transform="translate(-1.712 -5.601)" fill="#747474"/>
      <path id="Shape-3" data-name="Shape" d="M22.145,25a7.145,7.145,0,1,0,7.145,7.145A7.145,7.145,0,0,0,22.145,25Zm0,13.146a6,6,0,1,1,6-6A6,6,0,0,1,22.145,38.146Z" transform="translate(-6.426 -10.711)" fill="#747474"/>
      <path id="Shape-4" data-name="Shape" d="M41.98,51.175l-4.164-4.169a8.309,8.309,0,0,1-.809.809l4.168,4.16a.572.572,0,0,0,.8,0,.558.558,0,0,0,0-.8Z" transform="translate(-15.855 -20.139)" fill="#747474"/>
      <ellipse id="Oval-2" data-name="Oval" cx="5" cy="4.5" rx="5" ry="4.5" transform="translate(11 17)" fill="#747474"/>
    </g>
  </g>
</svg>
