<svg id="bar-chart" xmlns="http://www.w3.org/2000/svg" width="24" height="24" viewBox="0 0 24 24">
  <path id="Path_86924" data-name="Path 86924" d="M4.922,451.953a.7.7,0,0,0-.7-.7H.7a.7.7,0,0,0-.7.7v5.672a.7.7,0,0,0,.7.7H4.219a.7.7,0,0,0,.7-.7Zm0,0" transform="translate(0 -434.328)" fill="#747474"/>
  <path id="Path_86925" data-name="Path 86925" d="M174.219,338.75H170.7a.7.7,0,0,0-.7.7v9.891a.7.7,0,0,0,.7.7h3.516a.7.7,0,0,0,.7-.7v-9.891A.7.7,0,0,0,174.219,338.75Zm0,0" transform="translate(-163.625 -326.047)" fill="#747474"/>
  <path id="Path_86926" data-name="Path 86926" d="M342.969,301.25h-3.516a.7.7,0,0,0-.7.7v11.3a.7.7,0,0,0,.7.7h3.516a.7.7,0,0,0,.7-.7v-11.3A.7.7,0,0,0,342.969,301.25Zm0,0" transform="translate(-326.047 -289.953)" fill="#747474"/>
  <path id="Path_86927" data-name="Path 86927" d="M512.969,151.25h-3.516a.7.7,0,0,0-.7.7v16.922a.7.7,0,0,0,.7.7h3.516a.7.7,0,0,0,.7-.7V151.953A.7.7,0,0,0,512.969,151.25Zm0,0" transform="translate(-489.672 -145.578)" fill="#747474"/>
  <path id="Path_86928" data-name="Path 86928" d="M12.734,15.469a2.112,2.112,0,0,0,2.109-2.109,2.08,2.08,0,0,0-.087-.566l2.74-1.934a2.094,2.094,0,0,0,3.3-1.438L23.6,8.83a2.1,2.1,0,0,0,3.745-1.89l3.365-2.991a2.084,2.084,0,0,0,1.011.27A2.118,2.118,0,1,0,29.767,2.9L26.4,5.895a2.084,2.084,0,0,0-1.011-.27A2.105,2.105,0,0,0,23.31,7.454L20.5,8.045a2.1,2.1,0,0,0-3.9,1.1,2.08,2.08,0,0,0,.087.566l-2.74,1.934a2.107,2.107,0,1,0-1.215,3.828Zm0,0" transform="translate(-10.227 0)" fill="#747474"/>
</svg>
