<svg xmlns="http://www.w3.org/2000/svg" width="24" height="20" viewBox="0 0 24 20">
  <g id="briefcase" transform="translate(0 -42.666)">
    <g id="Group_91163" data-name="Group 91163" transform="translate(0 42.666)">
      <g id="Group_91162" data-name="Group 91162" transform="translate(0 0)">
        <path id="Path_86929" data-name="Path 86929" d="M22,45.666H17v-1a2,2,0,0,0-2-2H9a2,2,0,0,0-2,2v1H2a2,2,0,0,0-2,2v3a2,2,0,0,0,2,2h8v-.5a.5.5,0,0,1,.5-.5h3a.5.5,0,0,1,.5.5v.5h8a2,2,0,0,0,2-2v-3A2,2,0,0,0,22,45.666Zm-7,0H9v-1h6Z" transform="translate(0 -42.666)" fill="#747474"/>
        <path id="Path_86930" data-name="Path 86930" d="M23.723,266.436a.5.5,0,0,0-.524.049,1.974,1.974,0,0,1-1.2.411H14v1.5a.5.5,0,0,1-.5.5h-3a.5.5,0,0,1-.5-.5v-1.5H2a1.975,1.975,0,0,1-1.2-.411.5.5,0,0,0-.8.4V273.9a2,2,0,0,0,2,2H22a2,2,0,0,0,2-2v-7.013A.5.5,0,0,0,23.723,266.436Z" transform="translate(0 -255.897)" fill="#747474"/>
      </g>
    </g>
  </g>
</svg>
