<svg id="Component_13_2" data-name="Component 13 – 2" xmlns="http://www.w3.org/2000/svg" width="24" height="24" viewBox="0 0 24 24">
  <g id="Rectangle_24634" data-name="Rectangle 24634" transform="translate(0)" fill="#747474" stroke="#707070" stroke-width="1" opacity="0">
    <rect width="24" height="24" stroke="none"/>
    <rect x="0.5" y="0.5" width="23" height="23" fill="none"/>
  </g>
  <g id="calendar" transform="translate(0 1)">
    <path id="Path_86916" data-name="Path 86916" d="M.7,162.239H19.078a.7.7,0,0,0,.45-.163c.176-.148,4.2-3.611,4.448-11.088H4.241C4,157.775.289,160.965.25,161A.7.7,0,0,0,.7,162.239Z" transform="translate(0 -145.363)" fill="#747474"/>
    <path id="Path_86917" data-name="Path 86917" d="M110.008,32.394h-3.516v-.7a.7.7,0,0,0-1.406,0v.7h-3.563v-.7a.7.7,0,1,0-1.406,0v.7H96.6v-.7a.7.7,0,1,0-1.406,0v.7H91.679a.7.7,0,0,0-.7.7v2.109h19.735V33.1A.7.7,0,0,0,110.008,32.394Z" transform="translate(-86.711 -30.988)" fill="#747474"/>
    <path id="Path_86918" data-name="Path 86918" d="M107.144,303.125a2.116,2.116,0,0,1-1.353.491H90.977v2.109a.7.7,0,0,0,.7.7h18.329a.7.7,0,0,0,.7-.7v-7.882A13.936,13.936,0,0,1,107.144,303.125Z" transform="translate(-86.712 -285.334)" fill="#747474"/>
  </g>
</svg>
