<svg xmlns="http://www.w3.org/2000/svg" width="150" height="150" viewBox="0 0 150 150">
  <g id="delete" transform="translate(0.419 0.419)">
    <circle id="Ellipse_3227" data-name="Ellipse 3227" cx="75" cy="75" r="75" transform="translate(-0.419 -0.419)" fill="#c59d1a"/>
    <path id="Path_87349" data-name="Path 87349" d="M182.121,172.631a3.289,3.289,0,1,0,6.578,0V126.079a3.289,3.289,0,0,0-6.578,0Zm-19.386,0a3.289,3.289,0,1,0,6.578,0V126.079a3.289,3.289,0,0,0-6.578,0Zm-19.386,0a3.289,3.289,0,1,0,6.578,0V126.079a3.289,3.289,0,0,0-6.578,0ZM185.358,93.5a4.932,4.932,0,1,1,0,9.863H146.692a4.932,4.932,0,1,1,0-9.863Zm12.991,91.993a2.877,2.877,0,0,1-2.87,2.689H136.571a2.877,2.877,0,0,1-2.87-2.688l-4.659-71.9a2.888,2.888,0,0,1,2.87-3.064h68.225a2.887,2.887,0,0,1,2.87,3.064q-2.329,35.953-4.659,71.9Z" transform="translate(-91.458 -66.26)" fill="#fff" fill-rule="evenodd"/>
  </g>
</svg>
