<svg id="google" xmlns="http://www.w3.org/2000/svg" width="32" height="32" viewBox="0 0 32 32">
  <path id="Path_1398" data-name="Path 1398" d="M281.227,211.48H268.175a1.043,1.043,0,0,0-1.044,1.044v4.17a1.044,1.044,0,0,0,1.043,1.043h7.35a9.813,9.813,0,0,1-4.224,4.95l3.134,5.426a15.689,15.689,0,0,0,8-13.721,10.576,10.576,0,0,0-.18-2.049A1.048,1.048,0,0,0,281.227,211.48Z" transform="translate(-250.435 -198.262)" fill="#167ee6"/>
  <path id="Path_1399" data-name="Path 1399" d="M48.26,338.721a9.737,9.737,0,0,1-8.424-4.874l-5.425,3.127a15.987,15.987,0,0,0,21.849,5.864v-.007l-3.134-5.426A9.666,9.666,0,0,1,48.26,338.721Z" transform="translate(-32.26 -312.982)" fill="#12b347"/>
  <path id="Path_1400" data-name="Path 1400" d="M264,396.212V396.2l-3.134-5.426A9.666,9.666,0,0,1,256,392.094v6.261A15.973,15.973,0,0,0,264,396.212Z" transform="translate(-240 -366.355)" fill="#0f993e"/>
  <path id="Path_1401" data-name="Path 1401" d="M6.261,136.112a9.667,9.667,0,0,1,1.315-4.865l-5.425-3.127a15.927,15.927,0,0,0,0,15.985l5.425-3.127A9.667,9.667,0,0,1,6.261,136.112Z" transform="translate(0 -120.112)" fill="#ffd500"/>
  <path id="Path_1402" data-name="Path 1402" d="M48.26,6.261a9.694,9.694,0,0,1,6.183,2.22,1.04,1.04,0,0,0,1.4-.063L58.8,5.463a1.051,1.051,0,0,0-.06-1.538A15.965,15.965,0,0,0,34.411,8.007l5.425,3.127A9.737,9.737,0,0,1,48.26,6.261Z" transform="translate(-32.26)" fill="#ff4b26"/>
  <path id="Path_1403" data-name="Path 1403" d="M262.183,8.481a1.039,1.039,0,0,0,1.4-.063l2.954-2.954a1.052,1.052,0,0,0-.06-1.538A15.952,15.952,0,0,0,256,0V6.261A9.694,9.694,0,0,1,262.183,8.481Z" transform="translate(-240)" fill="#d93f21"/>
</svg>
