<svg xmlns="http://www.w3.org/2000/svg" width="20" height="20" viewBox="0 0 20 20">
  <g id="Group_92860" data-name="Group 92860" transform="translate(5587 1223.924)">
    <g id="Rectangle_253" data-name="Rectangle 253" transform="translate(-5587 -1223.924)" fill="#747474" stroke="#707070" stroke-width="1" opacity="0">
      <rect width="20" height="20" stroke="none"/>
      <rect x="0.5" y="0.5" width="19" height="19" fill="none"/>
    </g>
    <g id="eye" transform="translate(-5586 -1317.649)">
      <path id="Path_372" data-name="Path 372" d="M9.035,98.725c-3.452,0-6.583,1.889-8.893,4.957a.715.715,0,0,0,0,.854c2.31,3.072,5.441,4.96,8.893,4.96s6.583-1.889,8.893-4.957a.715.715,0,0,0,0-.854C15.618,100.614,12.487,98.725,9.035,98.725Zm.248,9.178a3.8,3.8,0,1,1,3.545-3.545A3.8,3.8,0,0,1,9.282,107.9Zm-.115-1.752a2.046,2.046,0,1,1,1.911-1.911A2.043,2.043,0,0,1,9.168,106.151Z" transform="translate(0)" fill="#747474"/>
    </g>
    <line id="Line_494" data-name="Line 494" x1="16" y2="16" transform="translate(-5584.965 -1221.538)" fill="none" stroke="#f4f4f4" stroke-width="1"/>
    <line id="Line_493" data-name="Line 493" x1="16" y2="16" transform="translate(-5585.5 -1221.538)" fill="none" stroke="#707070" stroke-width="1"/>
  </g>
</svg>
