<svg xmlns="http://www.w3.org/2000/svg" width="24" height="24" viewBox="0 0 24 24">
  <g id="image_logo" transform="translate(-19926 -899)">
    <g id="Rectangle_24692" data-name="Rectangle 24692" transform="translate(19926 899)" fill="#747474" stroke="#707070" stroke-width="1" opacity="0">
      <rect width="24" height="24" stroke="none"/>
      <rect x="0.5" y="0.5" width="23" height="23" fill="none"/>
    </g>
    <path id="image-upload" d="M26.2,12.994v7.367a4.154,4.154,0,0,1-4.6,4.6H6.86a4.154,4.154,0,0,1-4.6-4.6V8.082a4.154,4.154,0,0,1,4.6-4.6h9.823a.921.921,0,1,1,0,1.842H6.86c-1.936,0-2.763.826-2.763,2.763V19.44l3.119-3.119a1.238,1.238,0,0,1,1.744,0l1.154,1.154a.614.614,0,0,0,.86,0l6.066-6.066a1.238,1.238,0,0,1,1.744,0l5.575,5.575V12.994a.921.921,0,1,1,1.842,0ZM9.307,9a1.539,1.539,0,1,0,.009,0Zm12.938-3.34.27-.269V8.082a.921.921,0,1,0,1.842,0V5.394l.27.269a.921.921,0,0,0,1.3-1.3L24.087,2.52a.922.922,0,0,0-1.3,0L20.944,4.362a.921.921,0,0,0,1.3,1.3Z" transform="translate(19923.773 897.749)" fill="#747474"/>
  </g>
</svg>
