<svg xmlns="http://www.w3.org/2000/svg" width="44.25" height="44.25" viewBox="0 0 44.25 44.25">
  <g id="instagram" transform="translate(-6 -6)">
    <circle id="Ellipse_3244" data-name="Ellipse 3244" cx="4.474" cy="4.474" r="4.474" transform="translate(23.651 23.651)" fill="#fff"/>
    <path id="Path_87414" data-name="Path 87414" d="M28.125,6A22.125,22.125,0,1,0,50.25,28.125,22.125,22.125,0,0,0,28.125,6Zm13.67,27.748a8.371,8.371,0,0,1-2.23,5.694,8.525,8.525,0,0,1-5.756,2.207H22.441a8.523,8.523,0,0,1-5.756-2.207,8.371,8.371,0,0,1-2.23-5.694V22.5a8.372,8.372,0,0,1,2.23-5.694A8.525,8.525,0,0,1,22.441,14.6H33.809a8.523,8.523,0,0,1,5.756,2.207,8.371,8.371,0,0,1,2.23,5.694Z" fill="#fff"/>
    <path id="Path_87415" data-name="Path 87415" d="M146.971,131.549c-2.87-.073-8.614-.073-11.484,0a6.3,6.3,0,0,0-4.25,1.439,5.435,5.435,0,0,0-1.566,3.907c-.074,2.6,0,10.417,0,10.417a5.46,5.46,0,0,0,1.566,3.907,6.3,6.3,0,0,0,4.25,1.439c2.87.073,8.614.073,11.484,0a6.3,6.3,0,0,0,4.25-1.439,5.435,5.435,0,0,0,1.566-3.907V136.9a5.434,5.434,0,0,0-1.566-3.907A6.3,6.3,0,0,0,146.971,131.549Zm-5.742,17.488a6.953,6.953,0,1,1,7.464-6.934A7.214,7.214,0,0,1,141.229,149.038Zm7.5-12.437a1.391,1.391,0,1,1,1.493-1.387,1.443,1.443,0,0,1-1.493,1.387Z" transform="translate(-113.103 -113.979)" fill="#fff"/>
  </g>
</svg>
