<svg id="Linkedin" xmlns="http://www.w3.org/2000/svg" width="45" height="45" viewBox="0 0 45 45">
  <g id="Rectangle_213" data-name="Rectangle 213" fill="#fff" stroke="#707070" stroke-width="1" opacity="0">
    <rect width="45" height="45" stroke="none"/>
    <rect x="0.5" y="0.5" width="44" height="44" fill="none"/>
  </g>
  <path id="linkedin-2" data-name="linkedin" d="M22.127,0A22.127,22.127,0,1,0,44.254,22.127,22.129,22.129,0,0,0,22.127,0ZM15.7,33.45H10.308V17.237H15.7ZM13,15.023h-.035a2.809,2.809,0,1,1,.071-5.6,2.81,2.81,0,1,1-.036,5.6ZM35.128,33.45H29.74V24.776c0-2.18-.78-3.666-2.73-3.666a2.95,2.95,0,0,0-2.765,1.971,3.69,3.69,0,0,0-.177,1.315V33.45H18.679s.071-14.692,0-16.213h5.389v2.3a5.35,5.35,0,0,1,4.856-2.676c3.545,0,6.2,2.317,6.2,7.3Zm0,0" fill="#fff"/>
</svg>
