<svg id="manu" xmlns="http://www.w3.org/2000/svg" width="75" height="75" viewBox="0 0 75 75">
  <circle id="Ellipse_3205" data-name="Ellipse 3205" cx="37.5" cy="37.5" r="37.5" fill="#fff"/>
  <g id="Group_91301" data-name="Group 91301" transform="translate(20 21)">
    <g id="Rectangle_24661" data-name="Rectangle 24661" transform="translate(1.18 0)" fill="#c59d1a" stroke="#707070" stroke-width="1" opacity="0">
      <rect width="33.73" height="33.73" stroke="none"/>
      <rect x="0.5" y="0.5" width="32.73" height="32.73" fill="none"/>
    </g>
    <g id="Layer_13" data-name="Layer 13" transform="translate(0 3.182)">
      <path id="Path_86940" data-name="Path 86940" d="M36.9,7.246A1.246,1.246,0,0,1,35.65,8.493H3.246A1.246,1.246,0,0,1,3.246,6h32.4A1.246,1.246,0,0,1,36.9,7.246Zm-6.232,9.971H3.246a1.246,1.246,0,0,0,0,2.493H30.665a1.246,1.246,0,0,0,0-2.493ZM19.448,28.434H3.246a1.246,1.246,0,0,0,0,2.493h16.2a1.246,1.246,0,0,0,0-2.493Z" transform="translate(-2 -6)" fill="#c59d1a"/>
    </g>
  </g>
</svg>
