<svg xmlns="http://www.w3.org/2000/svg" width="32" height="32" viewBox="0 0 32 32">
  <g id="My_Jobs" data-name="My Jobs" transform="translate(-1545 -175)">
    <g id="profile-user" transform="translate(1545 174.999)" opacity="0">
      <path id="Path_87334" data-name="Path 87334" d="M16,0A16,16,0,1,0,32,16,16,16,0,0,0,16,0Zm0,4.784a5.292,5.292,0,1,1-5.291,5.292A5.293,5.293,0,0,1,16,4.785Zm0,23.033A11.742,11.742,0,0,1,8.35,25a2.255,2.255,0,0,1-.791-1.714,5.337,5.337,0,0,1,5.363-5.336H19.08a5.33,5.33,0,0,1,5.355,5.336A2.25,2.25,0,0,1,23.644,25,11.738,11.738,0,0,1,16,27.818Z" fill="#747474"/>
    </g>
    <g id="job-post" transform="translate(1510.98 175)">
      <g id="Group_92001" data-name="Group 92001" transform="translate(35.02)">
        <path id="Path_87335" data-name="Path 87335" d="M563.5,477.033c0-.762-.583-1.121-1.681-1.121h-1.1v2.354h1.1C562.9,478.266,563.5,477.862,563.5,477.033Z" transform="translate(-543.526 -460.343)" fill="#747474"/>
        <path id="Path_87336" data-name="Path 87336" d="M321.087,390.46c1.154,0,1.894-1.053,1.894-2.7s-.74-2.634-1.894-2.634-1.894,1-1.894,2.634S319.933,390.46,321.087,390.46Z" transform="translate(-309.897 -372.526)" fill="#747474"/>
        <path id="Path_87337" data-name="Path 87337" d="M563.109,386.421c0-.672-.482-.953-1.435-.953h-.953V387.5h.93C562.672,387.5,563.109,387.1,563.109,386.421Z" transform="translate(-543.525 -372.858)" fill="#747474"/>
        <g id="Group_92000" data-name="Group 92000" transform="translate(0)">
          <path id="Path_87338" data-name="Path 87338" d="M35.02,129.346v23.907a1.963,1.963,0,0,0,1.963,1.963H54.5v-7.9a2.329,2.329,0,0,1,2.329-2.329h7.9V129.346a1.963,1.963,0,0,0-1.963-1.963H58.5a3.311,3.311,0,0,1-4.288,1.106l-3.194,2.122a.244.244,0,0,1-.339-.339l1.919-2.889H36.983A1.963,1.963,0,0,0,35.02,129.346Zm24.718,9.786-1.009-.437a2.112,2.112,0,0,1-1.479-1.95,2.229,2.229,0,0,1,2.466-2.062,3.235,3.235,0,0,1,2.253.93l-.661.829a2.389,2.389,0,0,0-1.591-.628c-.695,0-1.154.325-1.154.863,0,.572.56.784,1.166,1.031l1,.415a2.051,2.051,0,0,1,1.479,1.984c0,1.188-.986,2.174-2.634,2.174a3.8,3.8,0,0,1-2.645-1.076l.762-.885a2.915,2.915,0,0,0,1.905.829c.829,0,1.278-.37,1.278-.941C60.87,139.6,60.4,139.412,59.738,139.132Zm-8.82-4.315H53.26c1.513,0,2.623.46,2.623,1.8a1.6,1.6,0,0,1-1.255,1.591v.045a1.684,1.684,0,0,1,1.636,1.737c0,1.468-1.2,2.152-2.813,2.152H50.917v-7.329Zm-4.707-.134c1.916,0,3.239,1.4,3.239,3.766s-1.322,3.833-3.239,3.833-3.228-1.457-3.228-3.833S44.305,134.683,46.21,134.683Zm-8.148,5.693a1.281,1.281,0,0,0,1.143.773c.684,0,1.031-.37,1.031-1.412v-4.92h1.3v5.032a2.134,2.134,0,0,1-2.185,2.432,2.317,2.317,0,0,1-2.185-1.244Z" transform="translate(-35.02 -123.216)" fill="#747474"/>
          <path id="Path_87339" data-name="Path 87339" d="M672.563,706.609a.981.981,0,0,0-.981.981v7.9l8.885-8.884h-7.9Z" transform="translate(-650.758 -683.494)" fill="#747474"/>
          <path id="Path_87340" data-name="Path 87340" d="M598.152,4.167a2.334,2.334,0,1,0-.832-1.31A2.323,2.323,0,0,0,598.152,4.167Z" transform="translate(-578.867)" fill="#747474"/>
        </g>
      </g>
    </g>
  </g>
</svg>
