<svg xmlns="http://www.w3.org/2000/svg" width="24" height="24" viewBox="0 0 24 24">
  <g id="open" transform="translate(-48 -48)">
    <path id="Path_87357" data-name="Path 87357" d="M67.736,117.639a.943.943,0,0,0-.94.94v10.808a1.414,1.414,0,0,1-1.41,1.41h-14.1a1.414,1.414,0,0,1-1.41-1.41v-14.1a1.414,1.414,0,0,1,1.41-1.41h9.839a.94.94,0,1,0,0-1.88H51.289A3.292,3.292,0,0,0,48,115.289v14.1a3.292,3.292,0,0,0,3.289,3.289h14.1a3.292,3.292,0,0,0,3.289-3.289V118.579A.943.943,0,0,0,67.736,117.639Z" transform="translate(0 -60.676)" fill="#fff"/>
    <path id="Path_87358" data-name="Path 87358" d="M222.145,48h-6.579a.94.94,0,1,0,0,1.88h4.311L208.323,61.434a.939.939,0,1,0,1.327,1.328L221.2,51.207v4.311a.94.94,0,1,0,1.88,0V48.94a.943.943,0,0,0-.94-.94Z" transform="translate(-151.084 0)" fill="#fff"/>
  </g>
</svg>
