<svg xmlns="http://www.w3.org/2000/svg" width="48.483" height="48.483" viewBox="0 0 48.483 48.483">
  <g id="pencil" transform="translate(-0.001)">
    <g id="Group_92012" data-name="Group 92012" transform="translate(0.001)">
      <path id="Path_87344" data-name="Path 87344" d="M24.242,0A24.242,24.242,0,1,0,48.484,24.241,24.242,24.242,0,0,0,24.242,0ZM35.766,17.445l-2.3,2.3-4.687-4.687L27,16.839l4.687,4.687L20.19,33.021,15.5,28.335l-1.778,1.778L18.412,34.8l-1.146,1.145-.022-.022a.907.907,0,0,1-.579.416l-4.37.975a.909.909,0,0,1-1.084-1.085l.974-4.369a.91.91,0,0,1,.417-.579l-.022-.022,18.5-18.5a.7.7,0,0,1,.983,0l3.7,3.7A.7.7,0,0,1,35.766,17.445Z" transform="translate(-0.001)" fill="#0e76c0"/>
    </g>
  </g>
</svg>
