<svg xmlns="http://www.w3.org/2000/svg" width="24" height="24" viewBox="0 0 24 24">
  <g id="Group_90912" data-name="Group 90912" transform="translate(-1027 -612)">
    <g id="Rectangle_24591" data-name="Rectangle 24591" transform="translate(1027 612)" fill="#fff" stroke="#707070" stroke-width="1" opacity="0">
      <rect width="24" height="24" stroke="none"/>
      <rect x="0.5" y="0.5" width="23" height="23" fill="none"/>
    </g>
    <g id="employee" transform="translate(1027 612)">
      <path id="Path_86867" data-name="Path 86867" d="M9,10a5,5,0,1,1,5-5A5.006,5.006,0,0,1,9,10Z" transform="translate(0)" fill="#fff"/>
      <path id="Path_86868" data-name="Path 86868" d="M4.75,12A4.754,4.754,0,0,0,0,16.75v3.5A.755.755,0,0,0,.75,21H10V17.75a3.756,3.756,0,0,1,3.21-3.7,3.846,3.846,0,0,1,1.38-1.86c-1-.286-1.054-.19-9.84-.19Z" transform="translate(0 0)" fill="#fff"/>
      <path id="Path_86869" data-name="Path 86869" d="M22.25,16H21v-.75a1.752,1.752,0,0,0-1.75-1.75h-2.5A1.752,1.752,0,0,0,15,15.25V16H13.75a1.74,1.74,0,0,0-1.253.533L18,19.4l5.5-2.871A1.74,1.74,0,0,0,22.25,16ZM16.5,16v-.75a.25.25,0,0,1,.25-.25h2.5a.25.25,0,0,1,.25.25V16Z" transform="translate(0 0)" fill="#fff"/>
      <path id="Path_86870" data-name="Path 86870" d="M18.347,20.915a.751.751,0,0,1-.693,0L12,17.965V22.25A1.752,1.752,0,0,0,13.75,24h8.5A1.752,1.752,0,0,0,24,22.25V17.965Z" transform="translate(0 0)" fill="#fff"/>
    </g>
  </g>
</svg>
