<svg id="question" xmlns="http://www.w3.org/2000/svg" width="25.973" height="25.973" viewBox="0 0 25.973 25.973">
  <g id="Group_92590" data-name="Group 92590">
    <path id="Path_87409" data-name="Path 87409" d="M12.987,0A12.987,12.987,0,1,0,25.973,12.987,12.979,12.979,0,0,0,12.987,0ZM12.6,19.065a1.316,1.316,0,0,1,0-2.633,1.316,1.316,0,0,1,0,2.633Zm1.949-6.65a2.147,2.147,0,0,0-.957,2.137c0,.325-.171.7-1.009.7-.7,0-.94-.256-.94-1.145a3.129,3.129,0,0,1,1.145-2.6c.564-.479,1.521-1.009,1.521-1.932,0-.786-.684-1.162-1.539-1.162-1.744,0-1.368,1.316-2.291,1.316a.98.98,0,0,1-1.026-.974c0-.923,1.06-2.291,3.368-2.291,2.188,0,3.641,1.214,3.641,2.821A4.376,4.376,0,0,1,14.551,12.415Z" fill="#c59d1a"/>
  </g>
</svg>
