<svg xmlns="http://www.w3.org/2000/svg" width="24.256" height="24.256" viewBox="0 0 24.256 24.256">
  <g id="search-interface-symbol" transform="translate(-0.006)">
    <g id="_x34__4_" transform="translate(0.006)">
      <g id="Group_92599" data-name="Group 92599" transform="translate(0)">
        <path id="Path_87411" data-name="Path 87411" d="M24.032,22.937,17.77,16.774a9.906,9.906,0,0,0,2.648-6.731A10.126,10.126,0,0,0,10.211,0,10.125,10.125,0,0,0,.006,10.043,10.125,10.125,0,0,0,10.211,20.086a10.263,10.263,0,0,0,6.423-2.243l6.287,6.187a.794.794,0,0,0,1.11,0A.765.765,0,0,0,24.032,22.937Zm-13.821-4.4a8.567,8.567,0,0,1-8.635-8.5,8.567,8.567,0,0,1,8.635-8.5,8.567,8.567,0,0,1,8.635,8.5A8.567,8.567,0,0,1,10.211,18.541Z" transform="translate(-0.006)" fill="#747474"/>
      </g>
    </g>
  </g>
</svg>
