<svg xmlns="http://www.w3.org/2000/svg" width="32" height="32" viewBox="0 0 32 32">
  <g id="Sign_Out" data-name="Sign Out" transform="translate(-1545 -175)">
    <g id="profile-user" transform="translate(1545 174.999)" opacity="0">
      <path id="Path_87334" data-name="Path 87334" d="M16,0A16,16,0,1,0,32,16,16,16,0,0,0,16,0Zm0,4.784a5.292,5.292,0,1,1-5.291,5.292A5.293,5.293,0,0,1,16,4.785Zm0,23.033A11.742,11.742,0,0,1,8.35,25a2.255,2.255,0,0,1-.791-1.714,5.337,5.337,0,0,1,5.363-5.336H19.08a5.33,5.33,0,0,1,5.355,5.336A2.25,2.25,0,0,1,23.644,25,11.738,11.738,0,0,1,16,27.818Z" fill="#747474"/>
    </g>
    <g id="logout" transform="translate(1545 174.996)">
      <path id="Path_87365" data-name="Path 87365" d="M19.744,17.337a1.325,1.325,0,0,0-1.316,1.333V24a1.326,1.326,0,0,1-1.316,1.333H13.163v-20A2.685,2.685,0,0,0,11.37,2.8l-.39-.132h6.131A1.326,1.326,0,0,1,18.428,4V8A1.316,1.316,0,1,0,21.06,8V4a3.98,3.98,0,0,0-3.949-4H2.962a1.022,1.022,0,0,0-.141.029C2.757.028,2.7,0,2.633,0A2.652,2.652,0,0,0,0,2.67v24A2.685,2.685,0,0,0,1.793,29.2L9.714,31.88A2.693,2.693,0,0,0,10.53,32a2.652,2.652,0,0,0,2.632-2.667V28h3.949a3.98,3.98,0,0,0,3.949-4V18.67a1.325,1.325,0,0,0-1.316-1.333Zm0,0" transform="translate(0 0)" fill="#747474"/>
      <path id="Path_87366" data-name="Path 87366" d="M291.426,112.317l-5.265-5.265a1.316,1.316,0,0,0-2.247.931v3.949h-5.265a1.316,1.316,0,1,0,0,2.632h5.265v3.949a1.316,1.316,0,0,0,2.247.931l5.265-5.265a1.315,1.315,0,0,0,0-1.861Zm0,0" transform="translate(-259.812 -99.934)" fill="#747474"/>
    </g>
  </g>
</svg>
