<svg xmlns="http://www.w3.org/2000/svg" width="20.92" height="20.86" viewBox="0 0 20.92 20.86">
  <g id="sort_3_" data-name="sort (3)" transform="translate(0.303 0.25)">
    <g id="Group_81857" data-name="Group 81857" transform="translate(0)">
      <path id="Path_84934" data-name="Path 84934" d="M11.381,58.9a.877.877,0,0,0-1.211.087L6.967,62.6V48.167a.865.865,0,0,0-1.731,0V62.6l-3.2-3.611A.88.88,0,0,0,.822,58.9a.88.88,0,0,0-.087,1.211l4.718,5.279a.8.8,0,0,0,1.256,0l4.759-5.279A.873.873,0,0,0,11.381,58.9Z" transform="translate(-0.533 -45.334)" fill="#0d1111" stroke="#0d1111" stroke-width="0.5"/>
      <path id="Path_84935" data-name="Path 84935" d="M232.068,5.6,227.392.325a.811.811,0,0,0-1.3,0L221.335,5.6a.877.877,0,0,0,.087,1.211.834.834,0,0,0,1.211-.087l3.2-3.611v14.39a.87.87,0,0,0,.865.865.833.833,0,0,0,.865-.824V3.121l3.2,3.611a.86.86,0,1,0,1.3-1.127Z" transform="translate(-211.955 0)" fill="#bfbfbf" stroke="#bfbfbf" stroke-width="0.5"/>
    </g>
  </g>
</svg>
