<svg xmlns="http://www.w3.org/2000/svg" width="142.943" height="59.48" viewBox="0 0 142.943 59.48">
  <g id="stripe" transform="translate(0 -149.482)">
    <path id="Path_87359" data-name="Path 87359" d="M435.847,212.611c0-10.165-4.924-18.185-14.334-18.185-9.45,0-15.168,8.021-15.168,18.106,0,11.952,6.75,17.987,16.438,17.987a22.138,22.138,0,0,0,11-2.581V220a21.084,21.084,0,0,1-9.728,2.184c-3.852,0-7.266-1.35-7.7-6.035h19.416C435.768,215.629,435.847,213.564,435.847,212.611Zm-19.615-3.772c0-4.487,2.74-6.353,5.241-6.353,2.422,0,5,1.866,5,6.353Z" transform="translate(-292.904 -32.397)" fill="#635bff" fill-rule="evenodd"/>
    <path id="Path_87360" data-name="Path 87360" d="M307.463,194.426a11.217,11.217,0,0,0-7.783,3.1l-.516-2.462h-8.735v46.3l9.927-2.1.04-11.237a11.181,11.181,0,0,0,7.028,2.5c7.108,0,13.58-5.718,13.58-18.3C320.964,200.7,314.412,194.426,307.463,194.426Zm-2.382,27.358a5.936,5.936,0,0,1-4.685-1.866l-.04-14.731a5.909,5.909,0,0,1,4.725-1.946c3.613,0,6.115,4.05,6.115,9.252C311.2,217.813,308.734,221.784,305.081,221.784Z" transform="translate(-209.348 -32.397)" fill="#635bff" fill-rule="evenodd"/>
    <path id="Path_87361" data-name="Path 87361" d="M241.5,159.686l9.966-2.144v-8.06l-9.966,2.1Z" transform="translate(-174.081)" fill="#635bff" fill-rule="evenodd"/>
    <rect id="Rectangle_24832" data-name="Rectangle 24832" width="9.966" height="34.743" transform="translate(67.422 162.704)" fill="#635bff"/>
    <path id="Path_87362" data-name="Path 87362" d="M179.459,198.722l-.635-2.938h-8.577v34.743h9.927V206.981c2.343-3.058,6.313-2.5,7.544-2.065v-9.132C186.447,195.307,181.8,194.434,179.459,198.722Z" transform="translate(-122.718 -33.08)" fill="#635bff" fill-rule="evenodd"/>
    <path id="Path_87363" data-name="Path 87363" d="M107.012,165.98l-9.688,2.065-.04,31.8a9.977,9.977,0,0,0,10.284,10.2,15.336,15.336,0,0,0,6.949-1.31v-8.06c-1.271.516-7.544,2.343-7.544-3.534v-14.1h7.544V174.6h-7.544Z" transform="translate(-70.125 -11.892)" fill="#635bff" fill-rule="evenodd"/>
    <path id="Path_87364" data-name="Path 87364" d="M10.046,205.186c0-1.549,1.271-2.144,3.375-2.144a22.146,22.146,0,0,1,9.847,2.541v-9.331a26.188,26.188,0,0,0-9.847-1.826C5.36,194.426,0,198.635,0,205.663c0,10.959,15.089,9.212,15.089,13.937,0,1.827-1.588,2.422-3.812,2.422a24.716,24.716,0,0,1-10.84-3.176v9.45a27.526,27.526,0,0,0,10.84,2.263c8.259,0,13.937-4.09,13.937-11.2C25.174,207.529,10.046,209.633,10.046,205.186Z" transform="translate(0 -32.397)" fill="#635bff" fill-rule="evenodd"/>
  </g>
</svg>
