<svg xmlns="http://www.w3.org/2000/svg" width="31.788" height="31.788" viewBox="0 0 31.788 31.788">
  <g id="Transaction_Details" data-name="Transaction Details" transform="translate(-0.529 -280.596)">
    <path id="path33289" d="M16.423,280.6a15.843,15.843,0,0,0-6.562,1.411.53.53,0,0,0-.255.72l.947,1.9a.53.53,0,0,0,.692.246,12.709,12.709,0,0,1,15.7,18.742l-1.67-1.671a.529.529,0,0,0-.9.376v5.828a.53.53,0,0,0,.528.532h5.827a.53.53,0,0,0,.376-.907l-1.878-1.878a15.877,15.877,0,0,0-12.8-25.295ZM2.116,284.3a.53.53,0,0,0-.376.9l1.879,1.879a15.892,15.892,0,0,0,19.365,23.882.53.53,0,0,0,.254-.72l-.95-1.9a.53.53,0,0,0-.688-.246,12.713,12.713,0,0,1-15.7-18.74l1.676,1.672a.53.53,0,0,0,.9-.376v-5.827a.53.53,0,0,0-.532-.532Zm14.306,3.709a8.477,8.477,0,1,0,8.479,8.479,8.485,8.485,0,0,0-8.479-8.479Zm0,2.116a.509.509,0,0,1,.53.53v1.123a2.657,2.657,0,0,1,2.12,2.594.53.53,0,1,1-1.06,0,1.588,1.588,0,1,0-1.588,1.588,2.65,2.65,0,0,1,.528,5.246v1.112a.53.53,0,1,1-1.06,0v-1.113a2.657,2.657,0,0,1-2.115-2.594.53.53,0,0,1,1.06,0,1.588,1.588,0,1,0,1.587-1.591,2.648,2.648,0,0,1-.532-5.241v-1.124a.509.509,0,0,1,.53-.53Z" transform="translate(0)" fill="#747474"/>
  </g>
</svg>
