<svg xmlns="http://www.w3.org/2000/svg" width="28" height="27.998" viewBox="0 0 28 27.998">
  <g id="upload_1_" data-name="upload (1)" transform="translate(-2 -2.002)">
    <path id="Path_87320" data-name="Path 87320" d="M30,24v4a2,2,0,0,1-2,2H4a2,2,0,0,1-2-2V24a1,1,0,0,1,2,0v4H28V24a1,1,0,0,1,2,0Z" fill="#747474"/>
    <path id="Path_87321" data-name="Path 87321" d="M8.293,10.707a1,1,0,0,1,0-1.414l7-7a1,1,0,0,1,1.416,0l7,7a1,1,0,1,1-1.414,1.414L17,5.414V23a1,1,0,0,1-2,0V5.414L9.707,10.707a1,1,0,0,1-1.414,0Z" fill="#747474"/>
  </g>
</svg>
