<svg xmlns="http://www.w3.org/2000/svg" width="32.168" height="32" viewBox="0 0 32.168 32">
  <g id="XMLID_520_" transform="translate(0 -1.199)">
    <circle id="XMLID_904_" cx="3.135" cy="3.135" r="3.135" transform="translate(6.386 1.199)" fill="#747474"/>
    <path id="XMLID_910_" d="M16.835,124.7a1.7,1.7,0,0,0-1.265-1.435l-3.642-.94.081-1.146a1.906,1.906,0,0,1-1.391-1.12L8.4,114.838l3.384,4.307a1.421,1.421,0,0,0,1.23.539l2.927-.233a.783.783,0,0,0,.752,1h7.072a.784.784,0,0,0,.757-.58l1.99-7.4A.784.784,0,1,0,25,112.066l-1.834,6.82H19.49a1.419,1.419,0,0,0-1.047-2.484l-4.9.39-2.914-3.709,1.854,1.383.06-.839a2.118,2.118,0,0,0-1.963-2.263l-3.6-.255a2.119,2.119,0,0,0-2.268,2.129l.08,10.486a1.808,1.808,0,0,0,.444,1.173H3.792L2.264,112.835a1.136,1.136,0,0,0-2.255.286l1.653,13.054a1.137,1.137,0,0,0,1.127.994h4.1v4.654l-2.7,2.2a.784.784,0,0,0,.991,1.215l1.708-1.394v.787a.784.784,0,1,0,1.568,0v-.787l1.708,1.394a.784.784,0,1,0,.992-1.215l-2.7-2.2v-4.654H12.2a1.136,1.136,0,0,0,1.122-.961l.273.07.978,7.651a1.7,1.7,0,1,0,3.382-.432Z" transform="translate(0 -102.219)" fill="#747474"/>
    <path id="XMLID_911_" d="M256.943,259.363H244.034a1.136,1.136,0,1,0,0,2.273h11.772v9.4h-5.349a1.136,1.136,0,1,0,0,2.273h6.485a1.137,1.137,0,0,0,1.137-1.136V260.5A1.136,1.136,0,0,0,256.943,259.363Z" transform="translate(-225.912 -240.111)" fill="#747474"/>
  </g>
</svg>
