<svg xmlns="http://www.w3.org/2000/svg" width="24" height="24" viewBox="0 0 24 24">
  <g id="Group_91110" data-name="Group 91110" transform="translate(0 0)">
    <g id="Component_13_3" data-name="Component 13 – 3" opacity="0">
      <g id="Rectangle_24634" data-name="Rectangle 24634" fill="#747474" stroke="#707070" stroke-width="1" opacity="0">
        <rect width="24" height="24" stroke="none"/>
        <rect x="0.5" y="0.5" width="23" height="23" fill="none"/>
      </g>
      <g id="calendar" transform="translate(0 1)">
        <path id="Path_86916" data-name="Path 86916" d="M.7,162.239H19.078a.7.7,0,0,0,.45-.163c.176-.148,4.2-3.611,4.448-11.088H4.241C4,157.775.289,160.965.25,161A.7.7,0,0,0,.7,162.239Z" transform="translate(0 -145.363)" fill="#747474"/>
        <path id="Path_86917" data-name="Path 86917" d="M110.008,32.394h-3.516v-.7a.7.7,0,0,0-1.406,0v.7h-3.563v-.7a.7.7,0,1,0-1.406,0v.7H96.6v-.7a.7.7,0,1,0-1.406,0v.7H91.679a.7.7,0,0,0-.7.7v2.109h19.735V33.1A.7.7,0,0,0,110.008,32.394Z" transform="translate(-86.711 -30.988)" fill="#747474"/>
        <path id="Path_86918" data-name="Path 86918" d="M107.144,303.125a2.116,2.116,0,0,1-1.353.491H90.977v2.109a.7.7,0,0,0,.7.7h18.329a.7.7,0,0,0,.7-.7v-7.882A13.936,13.936,0,0,1,107.144,303.125Z" transform="translate(-86.712 -285.334)" fill="#747474"/>
      </g>
    </g>
    <g id="Layer_3" data-name="Layer 3" transform="translate(0 0)">
      <path id="Path_86919" data-name="Path 86919" d="M24.095,24.609l-3.24-4.1a9.428,9.428,0,1,0-13.627,0L3.9,24.609a.854.854,0,1,0,1.337,1.063l3.231-4.037a9.428,9.428,0,0,0,11.056,0l3.231,4.037a.854.854,0,1,0,1.337-1.063ZM14.856,14a.857.857,0,0,1-.857.857H10.57a.857.857,0,1,1,0-1.714h2.571V8.856a.857.857,0,1,1,1.714,0Zm-12-3.608a.857.857,0,0,1-.8-1.174A12.924,12.924,0,0,1,9.216,2.06a.859.859,0,0,1,.643,1.594A11.142,11.142,0,0,0,3.654,9.859a.857.857,0,0,1-.8.531Zm22.283,0a.857.857,0,0,1-.8-.531,11.142,11.142,0,0,0-6.205-6.205.859.859,0,1,1,.643-1.594,12.924,12.924,0,0,1,7.156,7.156.856.856,0,0,1-.8,1.174Z" transform="translate(-1.999 -1.997)" fill="#747474"/>
    </g>
  </g>
</svg>
