<svg id="dollar-symbol" xmlns="http://www.w3.org/2000/svg" width="24" height="24" viewBox="0 0 24 24">
  <path id="Path_86920" data-name="Path 86920" d="M12,0A12,12,0,1,0,24,12,12,12,0,0,0,12,0Zm.726,17.345v1.389a.372.372,0,0,1-.386.374h-.926a.377.377,0,0,1-.392-.374V17.468A7.949,7.949,0,0,1,8.66,17a.742.742,0,0,1-.455-.877l.151-.588a.742.742,0,0,1,.987-.508,5.958,5.958,0,0,0,2.134.414c1,0,1.677-.384,1.677-1.083,0-.664-.559-1.083-1.852-1.52-1.869-.629-3.149-1.5-3.149-3.2C8.152,8.1,9.24,6.9,11.1,6.532V5.266a.417.417,0,0,1,.4-.411h.926a.4.4,0,0,1,.377.411V6.41a6.9,6.9,0,0,1,1.891.315.744.744,0,0,1,.493.889l-.133.526a.741.741,0,0,1-.959.518,5.348,5.348,0,0,0-1.765-.292c-1.135,0-1.5.489-1.5.979,0,.577.612.943,2.1,1.5,2.078.734,2.913,1.695,2.913,3.266A3.347,3.347,0,0,1,12.726,17.345Z" fill="#747474"/>
</svg>
