<svg id="facebook_1_" data-name="facebook (1)" xmlns="http://www.w3.org/2000/svg" width="32" height="32" viewBox="0 0 32 32">
  <path id="Path_1396" data-name="Path 1396" d="M32,16A16,16,0,0,1,18.5,31.806V20.625h3.728L22.937,16H18.5V13a2.312,2.312,0,0,1,2.608-2.5h2.017V6.563a24.61,24.61,0,0,0-3.582-.312c-3.654,0-6.043,2.215-6.043,6.225V16H9.437v4.625H13.5V31.806A16,16,0,1,1,32,16Z" fill="#1877f2"/>
  <path id="Path_1397" data-name="Path 1397" d="M163.791,114.375l.709-4.625h-4.437v-3a2.312,2.312,0,0,1,2.607-2.5h2.018v-3.937a24.6,24.6,0,0,0-3.582-.312c-3.655,0-6.043,2.215-6.043,6.225v3.525H151v4.625h4.063v11.181a16.169,16.169,0,0,0,5,0V114.375Z" transform="translate(-141.563 -93.75)" fill="#fff"/>
</svg>
