<svg xmlns="http://www.w3.org/2000/svg" width="478.827" height="124.112" viewBox="0 0 478.827 124.112">
  <g id="Group_2784" data-name="Group 2784" transform="translate(-69.106 -497.669)">
    <g id="Group_2783" data-name="Group 2783" transform="translate(69.106 497.669)">
      <g id="Group_2754" data-name="Group 2754" transform="translate(173.183 30.84)">
        <g id="Group_2739" data-name="Group 2739" transform="translate(0 0.484)">
          <path id="Path_959" data-name="Path 959" d="M558,189.584H545.189V199.7H542.4V177.285h2.79v9.7H558v-9.7h2.781V199.7H558Z" transform="translate(-542.399 -177.285)" fill="#fff"/>
        </g>
        <g id="Group_2740" data-name="Group 2740" transform="translate(22.956 0.098)">
          <path id="Path_960" data-name="Path 960" d="M619.753,188.026c-.033,5.861-3.684,11.591-11.372,11.591s-11.4-5.7-11.4-11.591c0-6.5,4.351-11.66,11.437-11.66C616,176.4,619.778,182.1,619.753,188.026Zm-11.339-9.1c-5.7,0-8.654,4.2-8.654,9.1,0,4.547,2.757,8.964,8.654,8.964s8.549-4.547,8.549-8.964C617,183.476,614.27,178.994,608.415,178.929Z" transform="translate(-596.978 -176.366)" fill="#fff"/>
        </g>
        <g id="Group_2741" data-name="Group 2741" transform="translate(48.537 0)">
          <path id="Path_961" data-name="Path 961" d="M667.309,178.635c-2.847,0-5.89,1.119-5.89,3.843,0,2.432,2.782,3.136,6.085,3.681,4.482.708,8.9,1.6,8.9,6.662-.033,5.031-4.832,6.662-9.126,6.662-3.971,0-7.753-1.439-9.477-5.189l2.3-1.342a8.144,8.144,0,0,0,7.208,3.936c2.725,0,6.345-.862,6.345-4.161.033-2.786-3.108-3.587-6.475-4.1-4.319-.675-8.516-1.668-8.516-6.215-.064-4.677,4.71-6.279,8.582-6.279,3.334,0,6.506.675,8.492,4.071l-2.115,1.309C672.4,179.562,669.806,178.668,667.309,178.635Z" transform="translate(-657.8 -176.134)" fill="#fff"/>
        </g>
        <g id="Group_2742" data-name="Group 2742" transform="translate(71.573 0.484)">
          <path id="Path_962" data-name="Path 962" d="M715.327,199.7H712.57V177.285h10.184c10.314,0,10.314,15.146,0,15.179h-7.426Zm7.426-19.827h-7.426v9.993h7.426C729.35,189.869,729.35,179.876,722.753,179.876Z" transform="translate(-712.57 -177.285)" fill="#fff"/>
        </g>
        <g id="Group_2743" data-name="Group 2743" transform="translate(93.503 0.484)">
          <path id="Path_963" data-name="Path 963" d="M764.709,177.285h2.79V199.7h-2.79Z" transform="translate(-764.709 -177.285)" fill="#fff"/>
        </g>
        <g id="Group_2744" data-name="Group 2744" transform="translate(99.815 0.484)">
          <path id="Path_964" data-name="Path 964" d="M779.717,179.782v-2.5h18.066v2.5h-7.655V199.7h-2.757V179.782Z" transform="translate(-779.717 -177.285)" fill="#fff"/>
        </g>
        <g id="Group_2745" data-name="Group 2745" transform="translate(116.905 0.484)">
          <path id="Path_965" data-name="Path 965" d="M833.544,177.285,843.606,199.7h-3.017l-2.206-4.934H825.572l-2.18,4.934H820.35L830.4,177.285Zm-1.57,2.814-5.312,12.108h10.632Z" transform="translate(-820.35 -177.285)" fill="#fff"/>
        </g>
        <g id="Group_2746" data-name="Group 2746" transform="translate(143.7 0.484)">
          <path id="Path_966" data-name="Path 966" d="M886.845,197.108h12.2V199.7H884.055V177.285h2.79Z" transform="translate(-884.055 -177.285)" fill="#fff"/>
        </g>
        <g id="Group_2747" data-name="Group 2747" transform="translate(162.253 0.484)">
          <path id="Path_967" data-name="Path 967" d="M928.168,177.285h2.791V199.7h-2.791Z" transform="translate(-928.168 -177.285)" fill="#fff"/>
        </g>
        <g id="Group_2748" data-name="Group 2748" transform="translate(168.574 0.484)">
          <path id="Path_968" data-name="Path 968" d="M943.2,179.782v-2.5h18.066v2.5h-7.654V199.7h-2.758V179.782Z" transform="translate(-943.195 -177.285)" fill="#fff"/>
        </g>
        <g id="Group_2749" data-name="Group 2749" transform="translate(187.933 0.484)">
          <path id="Path_969" data-name="Path 969" d="M989.223,177.379v-.094h3.392l6.728,10.631,6.881-10.631h3.4v.094l-8.842,13.23V199.7H997.9v-9.094Z" transform="translate(-989.223 -177.285)" fill="#fff"/>
        </g>
        <g id="Group_2750" data-name="Group 2750" transform="translate(215.948 0.484)">
          <path id="Path_970" data-name="Path 970" d="M1065.111,200.118c-5.377,0-9.281-3.522-9.281-9.257h2.75c0,4.071,2.562,6.634,6.531,6.634,4.01,0,6.507-2.66,6.507-6.759V179.847h-7.849v-2.562h10.6v13.45C1074.465,196.4,1070.716,200.118,1065.111,200.118Z" transform="translate(-1055.83 -177.285)" fill="#fff"/>
        </g>
        <g id="Group_2751" data-name="Group 2751" transform="translate(238.806 0.098)">
          <path id="Path_971" data-name="Path 971" d="M1132.951,188.026c-.032,5.861-3.684,11.591-11.371,11.591s-11.4-5.7-11.4-11.591c0-6.5,4.351-11.66,11.436-11.66C1129.2,176.4,1132.975,182.1,1132.951,188.026Zm-11.339-9.1c-5.7,0-8.654,4.2-8.654,9.1,0,4.547,2.757,8.964,8.654,8.964s8.549-4.547,8.549-8.964C1130.194,183.476,1127.469,178.994,1121.612,178.929Z" transform="translate(-1110.176 -176.366)" fill="#fff"/>
        </g>
        <g id="Group_2752" data-name="Group 2752" transform="translate(266.136 0.484)">
          <path id="Path_972" data-name="Path 972" d="M1184.958,177.285c4.066,0,7.524,2.017,7.524,6.275a4.851,4.851,0,0,1-3.326,4.613,5.58,5.58,0,0,1,4.033,5.347c0,4.775-4,6.182-8.231,6.182h-9.8V177.285Zm-7.012,9.64h7.141c2.693,0,4.645-.993,4.645-3.331,0-2.5-2.018-3.779-4.775-3.779h-7.012Zm0,10.151h7.012c2.334,0,5.442-.606,5.442-3.652-.032-2.815-2.879-3.969-5.312-3.969h-7.141Z" transform="translate(-1175.156 -177.285)" fill="#fff"/>
        </g>
        <g id="Group_2753" data-name="Group 2753" transform="translate(287.041 0)">
          <path id="Path_973" data-name="Path 973" d="M1234.369,178.635c-2.847,0-5.89,1.119-5.89,3.843,0,2.432,2.782,3.136,6.085,3.681,4.482.708,8.9,1.6,8.9,6.662-.034,5.031-4.832,6.662-9.126,6.662-3.97,0-7.753-1.439-9.477-5.189l2.3-1.342a8.145,8.145,0,0,0,7.208,3.936c2.725,0,6.344-.862,6.344-4.161.033-2.786-3.107-3.587-6.474-4.1-4.319-.675-8.517-1.668-8.517-6.215-.065-4.677,4.71-6.279,8.581-6.279,3.335,0,6.5.675,8.493,4.071l-2.115,1.309C1239.462,179.562,1236.866,178.668,1234.369,178.635Z" transform="translate(-1224.86 -176.134)" fill="#fff"/>
        </g>
      </g>
      <g id="Group_2778" data-name="Group 2778" transform="translate(232.592 64.058)">
        <g id="Group_2777" data-name="Group 2777" transform="translate(0 0)">
          <g id="Group_2757" data-name="Group 2757" transform="translate(0 0.339)">
            <g id="Group_2756" data-name="Group 2756">
              <g id="Group_2755" data-name="Group 2755">
                <path id="Path_974" data-name="Path 974" d="M693.524,255.918h-2.563l-7.144,15.924-.167.385h2.737l1.532-3.469h8.654l1.479,3.306.076.163h2.706L693.6,256.082Zm2.035,10.492h-6.633l3.316-7.56Z" transform="translate(-683.65 -255.918)" fill="#c59d1a"/>
              </g>
            </g>
          </g>
          <g id="Group_2759" data-name="Group 2759" transform="translate(24.955 0.339)">
            <g id="Group_2758" data-name="Group 2758">
              <path id="Path_975" data-name="Path 975" d="M756.2,255.918h-2.3v9.73c0,3.122-2.1,4.521-4.178,4.521a4.144,4.144,0,0,1-4.254-4.5v-9.729h-2.486v9.729a6.441,6.441,0,0,0,6.74,6.851c3.318,0,6.663-2.12,6.663-6.851v-9.455l-.023-.137Z" transform="translate(-742.982 -255.918)" fill="#c59d1a"/>
            </g>
          </g>
          <g id="Group_2761" data-name="Group 2761" transform="translate(47.28)">
            <g id="Group_2760" data-name="Group 2760">
              <path id="Path_976" data-name="Path 976" d="M803.282,262.165c-2.562-.423-4.049-.941-4.049-2.322,0-1.673,1.936-2.424,3.866-2.424a4.905,4.905,0,0,1,4.21,1.895l.137.232,1.952-1.208-.138-.228c-1.555-2.654-4.133-3-6.206-3a7.373,7.373,0,0,0-5.169,1.769,3.923,3.923,0,0,0-1.136,2.92c0,3.385,3.073,4.144,6.221,4.635,2.6.4,4.34,1,4.316,2.611,0,2.463-3.2,2.653-4.186,2.653a5.441,5.441,0,0,1-4.819-2.623l-.137-.248-2.082,1.213.1.225c1.144,2.455,3.6,3.808,6.917,3.808,3.217,0,6.67-1.3,6.694-4.959C809.77,263.187,806.171,262.623,803.282,262.165Z" transform="translate(-796.061 -255.112)" fill="#c59d1a"/>
            </g>
          </g>
          <g id="Group_2763" data-name="Group 2763" transform="translate(68.605 0.339)">
            <g id="Group_2762" data-name="Group 2762">
              <path id="Path_977" data-name="Path 977" d="M846.765,258.221h5.383v14.006h2.486V258.221h5.383v-2.3H846.765Z" transform="translate(-846.765 -255.918)" fill="#c59d1a"/>
            </g>
          </g>
          <g id="Group_2766" data-name="Group 2766" transform="translate(90.564 0.339)">
            <g id="Group_2765" data-name="Group 2765">
              <g id="Group_2764" data-name="Group 2764">
                <path id="Path_978" data-name="Path 978" d="M912.019,261.236a5.231,5.231,0,0,0-5.612-5.318h-7.434v16.309h2.509v-5.673h3.431l4.82,5.577.083.1h3.209l-5.261-5.9A4.81,4.81,0,0,0,912.019,261.236Zm-10.537-3.015h4.925a2.961,2.961,0,0,1,3.1,3.054v0c0,1.86-1.2,2.969-3.2,2.969h-4.833Z" transform="translate(-898.973 -255.918)" fill="#c59d1a"/>
              </g>
            </g>
          </g>
          <g id="Group_2769" data-name="Group 2769" transform="translate(111.509 0.339)">
            <g id="Group_2768" data-name="Group 2768">
              <g id="Group_2767" data-name="Group 2767">
                <path id="Path_979" data-name="Path 979" d="M958.645,255.918h-2.562l-7.144,15.924-.168.385h2.738l1.533-3.469h8.653l1.479,3.306.076.163h2.707l-7.235-16.145Zm2.036,10.492h-6.634l3.317-7.56Z" transform="translate(-948.77 -255.918)" fill="#c59d1a"/>
              </g>
            </g>
          </g>
          <g id="Group_2771" data-name="Group 2771" transform="translate(137.258 0.339)">
            <g id="Group_2770" data-name="Group 2770">
              <path id="Path_980" data-name="Path 980" d="M1012.5,255.918h-2.508v16.309h11.086v-2.37H1012.5Z" transform="translate(-1009.99 -255.918)" fill="#c59d1a"/>
            </g>
          </g>
          <g id="Group_2773" data-name="Group 2773" transform="translate(157.066 0.339)">
            <g id="Group_2772" data-name="Group 2772">
              <rect id="Rectangle_516" data-name="Rectangle 516" width="2.509" height="16.309" fill="#c59d1a"/>
            </g>
          </g>
          <g id="Group_2776" data-name="Group 2776" transform="translate(168.122 0.339)">
            <g id="Group_2775" data-name="Group 2775">
              <g id="Group_2774" data-name="Group 2774">
                <path id="Path_981" data-name="Path 981" d="M1093.322,256.082l-.076-.164h-2.562l-7.144,15.924-.168.385h2.737l1.532-3.469h8.655l1.479,3.306.076.163h2.707Zm1.959,10.328h-6.633l3.316-7.56Z" transform="translate(-1083.371 -255.918)" fill="#c59d1a"/>
              </g>
            </g>
          </g>
        </g>
      </g>
      <g id="Group_2779" data-name="Group 2779" transform="translate(173.492 90.671)">
        <path id="Path_982" data-name="Path 982" d="M553.92,332.264l-.983-2.57h-6.142l-.985,2.57h-2.676L548.4,318.87h2.936l5.262,13.394Zm-4.059-11.027-2.407,6.385h4.823Z" transform="translate(-543.134 -318.667)" fill="#fff"/>
        <path id="Path_983" data-name="Path 983" d="M586.776,337.352v-1.285a4.657,4.657,0,0,1-3.432,1.525c-2.091,0-3.115-1.082-3.115-3.071v-6.87h2.107v6.1c0,1.5.766,1.968,1.952,1.968a3.237,3.237,0,0,0,2.489-1.264v-6.809h2.107v9.7Z" transform="translate(-564.626 -323.755)" fill="#fff"/>
        <path id="Path_984" data-name="Path 984" d="M607.673,335.756l.967-1.525a5.017,5.017,0,0,0,3.294,1.363c1.261,0,1.9-.542,1.9-1.306,0-1.907-5.866-.541-5.866-4.254,0-1.586,1.367-2.953,3.816-2.953a5.513,5.513,0,0,1,3.774,1.367l-.879,1.484a3.917,3.917,0,0,0-2.871-1.164c-1.106,0-1.805.5-1.805,1.184,0,1.729,5.856.443,5.856,4.3,0,1.7-1.424,3.01-4.034,3.01A5.906,5.906,0,0,1,607.673,335.756Z" transform="translate(-580.528 -323.424)" fill="#fff"/>
        <path id="Path_985" data-name="Path 985" d="M633.4,331.449v-5.6h-1.61V324h1.61v-2.652h2.107V324h1.968v1.847h-1.968v5.083c0,.663.318,1.143.927,1.143a1.357,1.357,0,0,0,.944-.341l.5,1.587a2.774,2.774,0,0,1-1.984.622A2.236,2.236,0,0,1,633.4,331.449Z" transform="translate(-594.5 -320.102)" fill="#fff"/>
        <path id="Path_986" data-name="Path 986" d="M652.211,337.049v-9.7h2.108v1.428a4.141,4.141,0,0,1,3.155-1.647v2.086a3.174,3.174,0,0,0-.667-.056,3.353,3.353,0,0,0-2.488,1.285v6.605Z" transform="translate(-606.334 -323.452)" fill="#fff"/>
        <path id="Path_987" data-name="Path 987" d="M676.279,337.021v-1.045a4.09,4.09,0,0,1-3.132,1.285,3.222,3.222,0,0,1-3.376-3.213,3.124,3.124,0,0,1,3.376-3.152,4.015,4.015,0,0,1,3.132,1.244V330.7c0-1.127-.919-1.81-2.27-1.81a3.972,3.972,0,0,0-2.871,1.229l-.862-1.469a5.759,5.759,0,0,1,4.076-1.566c2.147,0,4.034.9,4.034,3.514v6.426Zm0-2.209v-1.468a2.842,2.842,0,0,0-2.31-1,1.763,1.763,0,1,0,0,3.473A2.833,2.833,0,0,0,676.279,334.813Z" transform="translate(-616.508 -323.424)" fill="#fff"/>
        <path id="Path_988" data-name="Path 988" d="M699.129,332.264V318.87h2.106v13.394Z" transform="translate(-633.518 -318.667)" fill="#fff"/>
        <path id="Path_989" data-name="Path 989" d="M712.415,319.935a1.306,1.306,0,1,1,1.3,1.305A1.314,1.314,0,0,1,712.415,319.935Zm.26,12.189v-9.7h2.107v9.7Z" transform="translate(-641.216 -318.527)" fill="#fff"/>
        <path id="Path_990" data-name="Path 990" d="M732.034,337.021v-1.045a4.086,4.086,0,0,1-3.131,1.285,3.222,3.222,0,0,1-3.376-3.213A3.125,3.125,0,0,1,728.9,330.9a4,4,0,0,1,3.131,1.244V330.7c0-1.127-.919-1.81-2.268-1.81a3.97,3.97,0,0,0-2.872,1.229l-.863-1.469a5.759,5.759,0,0,1,4.076-1.566c2.147,0,4.034.9,4.034,3.514v6.426Zm0-2.209v-1.468a2.841,2.841,0,0,0-2.31-1,1.763,1.763,0,1,0,0,3.473A2.832,2.832,0,0,0,732.034,334.813Z" transform="translate(-648.813 -323.424)" fill="#fff"/>
        <path id="Path_991" data-name="Path 991" d="M754.7,323.65l-.944-.786a3.305,3.305,0,0,0,1.44-1.886,1.267,1.267,0,0,1-.342.061,1.2,1.2,0,0,1-1.2-1.265,1.387,1.387,0,0,1,1.367-1.387,1.649,1.649,0,0,1,1.569,1.831A4.3,4.3,0,0,1,754.7,323.65Z" transform="translate(-665.106 -318.387)" fill="#fff"/>
        <path id="Path_992" data-name="Path 992" d="M765,335.756l.968-1.525a5.015,5.015,0,0,0,3.295,1.363c1.26,0,1.9-.542,1.9-1.306,0-1.907-5.865-.541-5.865-4.254,0-1.586,1.366-2.953,3.815-2.953a5.513,5.513,0,0,1,3.774,1.367l-.879,1.484a3.914,3.914,0,0,0-2.871-1.164c-1.106,0-1.806.5-1.806,1.184,0,1.729,5.857.443,5.857,4.3,0,1.7-1.423,3.01-4.035,3.01A5.907,5.907,0,0,1,765,335.756Z" transform="translate(-671.684 -323.424)" fill="#fff"/>
        <path id="Path_993" data-name="Path 993" d="M816.037,332.264v-5.845h-6.97v5.845h-2.352V318.87h2.352v5.482h6.97V318.87h2.351v13.394Z" transform="translate(-695.854 -318.667)" fill="#fff"/>
        <path id="Path_994" data-name="Path 994" d="M842.051,332.161a4.991,4.991,0,1,1,4.977,5.1A4.852,4.852,0,0,1,842.051,332.161Zm7.792,0c0-1.708-1.009-3.213-2.815-3.213-1.789,0-2.789,1.505-2.789,3.213,0,1.729,1,3.233,2.789,3.233C848.834,335.394,849.843,333.89,849.843,332.161Z" transform="translate(-716.327 -323.424)" fill="#fff"/>
        <path id="Path_995" data-name="Path 995" d="M885.11,337.021V330.7c0-1.046-.457-1.749-1.588-1.749a2.936,2.936,0,0,0-2.244,1.285v6.789H879.17V330.7c0-1.046-.464-1.749-1.611-1.749a2.94,2.94,0,0,0-2.229,1.306v6.768h-2.107v-9.7h2.107v1.326a4.182,4.182,0,0,1,3.156-1.566,2.538,2.538,0,0,1,2.652,1.785,4.111,4.111,0,0,1,3.286-1.785c1.79,0,2.8.964,2.8,2.932v7.008Z" transform="translate(-734.389 -323.424)" fill="#fff"/>
        <path id="Path_996" data-name="Path 996" d="M913.935,332.161a4.9,4.9,0,0,1,4.921-5.08c2.912,0,4.774,2.229,4.774,5.279v.5h-7.492a2.947,2.947,0,0,0,3.1,2.672,4.1,4.1,0,0,0,2.75-1.065l.959,1.387a5.652,5.652,0,0,1-3.937,1.4A4.87,4.87,0,0,1,913.935,332.161Zm4.921-3.352a2.669,2.669,0,0,0-2.733,2.571h5.457A2.59,2.59,0,0,0,918.856,328.809Z" transform="translate(-757.977 -323.424)" fill="#fff"/>
        <path id="Path_997" data-name="Path 997" d="M957.567,332.161a4.991,4.991,0,1,1,4.977,5.1A4.852,4.852,0,0,1,957.567,332.161Zm7.791,0c0-1.708-1.009-3.213-2.815-3.213-1.789,0-2.789,1.505-2.789,3.213,0,1.729,1,3.233,2.789,3.233C964.35,335.394,965.359,333.89,965.359,332.161Z" transform="translate(-783.258 -323.424)" fill="#fff"/>
        <path id="Path_998" data-name="Path 998" d="M987.721,331.984V324.13H986.11v-1.847h1.611v-.54c0-2.111,1.219-3.356,3.066-3.356a3.178,3.178,0,0,1,2.335.846l-.829,1.306a1.56,1.56,0,0,0-1.123-.424c-.821,0-1.342.542-1.342,1.628v.54H991.8v1.847h-1.969v7.854Z" transform="translate(-799.795 -318.387)" fill="#fff"/>
        <path id="Path_999" data-name="Path 999" d="M1029.934,332.264v-5.845h-6.971v5.845h-2.35V318.87h2.35v5.482h6.971V318.87h2.351v13.394Z" transform="translate(-819.787 -318.667)" fill="#fff"/>
        <path id="Path_1000" data-name="Path 1000" d="M1055.947,332.161a4.992,4.992,0,1,1,4.977,5.1A4.852,4.852,0,0,1,1055.947,332.161Zm7.792,0c0-1.708-1.009-3.213-2.815-3.213-1.789,0-2.789,1.505-2.789,3.213,0,1.729,1,3.233,2.789,3.233C1062.73,335.394,1063.739,333.89,1063.739,332.161Z" transform="translate(-840.26 -323.424)" fill="#fff"/>
        <path id="Path_1001" data-name="Path 1001" d="M1085.11,335.756l.968-1.525a5.017,5.017,0,0,0,3.294,1.363c1.261,0,1.9-.542,1.9-1.306,0-1.907-5.865-.541-5.865-4.254,0-1.586,1.367-2.953,3.816-2.953a5.514,5.514,0,0,1,3.774,1.367l-.879,1.484a3.916,3.916,0,0,0-2.871-1.164c-1.106,0-1.805.5-1.805,1.184,0,1.729,5.856.443,5.856,4.3,0,1.7-1.424,3.01-4.035,3.01A5.91,5.91,0,0,1,1085.11,335.756Z" transform="translate(-857.156 -323.424)" fill="#fff"/>
        <path id="Path_1002" data-name="Path 1002" d="M1114.138,335.675v5.039h-2.107V327.321h2.107v1.326a3.871,3.871,0,0,1,3.115-1.566c2.505,0,4.3,1.887,4.3,5.08s-1.79,5.1-4.3,5.1A3.8,3.8,0,0,1,1114.138,335.675Zm5.222-3.514c0-1.867-1.066-3.213-2.734-3.213a3.143,3.143,0,0,0-2.489,1.306v3.835a3.2,3.2,0,0,0,2.489,1.305C1118.294,335.394,1119.36,334.048,1119.36,332.161Z" transform="translate(-872.755 -323.424)" fill="#fff"/>
        <path id="Path_1003" data-name="Path 1003" d="M1141.388,319.935a1.306,1.306,0,1,1,1.3,1.305A1.315,1.315,0,0,1,1141.388,319.935Zm.261,12.189v-9.7h2.107v9.7Z" transform="translate(-889.764 -318.527)" fill="#fff"/>
        <path id="Path_1004" data-name="Path 1004" d="M1154.681,331.449v-5.6h-1.61V324h1.61v-2.652h2.106V324h1.969v1.847h-1.969v5.083c0,.663.318,1.143.928,1.143a1.364,1.364,0,0,0,.945-.341l.495,1.587a2.774,2.774,0,0,1-1.985.622A2.235,2.235,0,0,1,1154.681,331.449Z" transform="translate(-896.533 -320.102)" fill="#fff"/>
        <path id="Path_1005" data-name="Path 1005" d="M1178.628,337.021v-1.045a4.089,4.089,0,0,1-3.132,1.285,3.221,3.221,0,0,1-3.375-3.213,3.124,3.124,0,0,1,3.375-3.152,4,4,0,0,1,3.132,1.244V330.7c0-1.127-.919-1.81-2.269-1.81a3.969,3.969,0,0,0-2.871,1.229l-.863-1.469a5.759,5.759,0,0,1,4.076-1.566c2.148,0,4.034.9,4.034,3.514v6.426Zm0-2.209v-1.468a2.842,2.842,0,0,0-2.31-1,1.763,1.763,0,1,0,0,3.473A2.834,2.834,0,0,0,1178.628,334.813Z" transform="translate(-907.571 -323.424)" fill="#fff"/>
        <path id="Path_1006" data-name="Path 1006" d="M1201.477,332.264V318.87h2.107v13.394Z" transform="translate(-924.58 -318.667)" fill="#fff"/>
        <path id="Path_1007" data-name="Path 1007" d="M1214.744,319.935a1.306,1.306,0,1,1,1.3,1.305A1.315,1.315,0,0,1,1214.744,319.935Zm.261,12.189v-9.7h2.106v9.7Z" transform="translate(-932.266 -318.527)" fill="#fff"/>
        <path id="Path_1008" data-name="Path 1008" d="M1228.055,331.449v-5.6h-1.611V324h1.611v-2.652h2.106V324h1.969v1.847h-1.969v5.083c0,.663.318,1.143.928,1.143a1.361,1.361,0,0,0,.943-.341l.5,1.587a2.774,2.774,0,0,1-1.985.622A2.236,2.236,0,0,1,1228.055,331.449Z" transform="translate(-939.046 -320.102)" fill="#fff"/>
        <path id="Path_1009" data-name="Path 1009" d="M1244.831,339.259a2.171,2.171,0,0,0,.8.162,1.322,1.322,0,0,0,1.391-.846l.481-1.1-3.979-9.822h2.253l2.831,7.272,2.83-7.272h2.27L1249.02,339.1a3.241,3.241,0,0,1-3.327,2.188,5.9,5.9,0,0,1-1.187-.142Z" transform="translate(-948.94 -323.755)" fill="#fff"/>
      </g>
      <g id="Group_2781" data-name="Group 2781" transform="translate(173.183 71.416)">
        <g id="Group_2780" data-name="Group 2780" transform="translate(0 0)">
          <rect id="Rectangle_517" data-name="Rectangle 517" width="48.001" height="1.773" fill="#c59d1a"/>
        </g>
      </g>
      <g id="Group_2782" data-name="Group 2782" transform="translate(430.826 71.416)">
        <rect id="Rectangle_518" data-name="Rectangle 518" width="48.001" height="1.773" transform="translate(0 0)" fill="#c59d1a"/>
      </g>
      <path id="Path_1010" data-name="Path 1010" d="M130.645,151.3a10.139,10.139,0,0,1,.36-1.562,9.611,9.611,0,0,1,1.227-2.578,37.035,37.035,0,0,1,7.791-7.4,14.522,14.522,0,0,1,7.96-2.575,7.182,7.182,0,0,0,4.216-1.593,24.393,24.393,0,0,0,6.388-7.523c.724-1.26,1-2.769,1.665-4.072a28.263,28.263,0,0,1,2.4-3.785,4.72,4.72,0,0,1,1.661-1.422,21.256,21.256,0,0,0,7.566-6.8c.05-.067.111-.128.2-.23a21.885,21.885,0,0,0,2.233,1.472,11.555,11.555,0,0,0,2.752,1.039,2.667,2.667,0,0,0,3.214-1.609c1.592-3.445,4.275-5.858,7.292-7.991a6.191,6.191,0,0,1,3.1-1.217,43.69,43.69,0,0,1,9.652-.235,7.118,7.118,0,0,1,1.4.329c1.327.462,1.675,1.229,1.06,2.5a9.944,9.944,0,0,1-1.189,1.745c-.541.689-1.182,1.3-1.7,2.01a2.174,2.174,0,0,0,.336,3.306,17.591,17.591,0,0,0,2.186,1.6,48.176,48.176,0,0,0,11.151,5.877,15.81,15.81,0,0,0,3.313.625,3.03,3.03,0,0,0,3.3-1.9,40.6,40.6,0,0,0,1.875-5.693c.58-2.357.894-4.779,1.4-7.156a5.5,5.5,0,0,1,4.615-3.655,1.951,1.951,0,0,1,2.022,1.266c1.921,5.055,5.127,9.437,7.43,14.289,1.6,3.37,3.089,6.8,4.862,10.078,3.224,5.958,7.536,11.148,11.922,16.272,1.139,1.33,2.212,2.715,3.287,4.041,1.16-1.119,2.4-2.22,3.532-3.422,4.158-4.418,8.165-8.969,11.087-14.332a22.874,22.874,0,0,0,2.058-5.085c1.037-3.96-.88-6.488-4.97-6.921a27.692,27.692,0,0,0-10.063,1.121c-2.621.694-5.189,1.584-7.78,2.388a2.577,2.577,0,0,1-.913.17,1.137,1.137,0,0,1,.221-.175,111.057,111.057,0,0,1,19.962-7.3,28.274,28.274,0,0,1,8.911-.941,10.4,10.4,0,0,1,1.592.244c3.154.763,4.545,2.935,3.956,6.137a22.751,22.751,0,0,1-3.76,8.287,86.735,86.735,0,0,1-10.582,12.817c-12.606,12.968-26.811,23.995-41.657,34.241a195.414,195.414,0,0,1-38.456,20.2q-3.974,1.6-7.956,3.176a.975.975,0,0,1-.666.064c2.154-.97,4.321-1.912,6.46-2.915,5.4-2.53,10.786-5.094,16.188-7.623a1.029,1.029,0,0,0,.669-1.106c-.026-3.71.01-7.42-.018-11.13a13.867,13.867,0,0,0-13.927-13.833q-5.056,0-10.112,0A13.828,13.828,0,0,0,167.584,176.6c0,3.54-.014,7.08.011,10.619a1.009,1.009,0,0,1-.75,1.127,9.313,9.313,0,0,1-4.468.59,8.569,8.569,0,0,0-3.875.58c-2.557.978-5,2.261-7.532,3.3a13.8,13.8,0,0,1-3.974,1.1c-2.95.247-4.627-1.357-4.788-4.319-.067-1.243-.112-2.49-.083-3.734a17.357,17.357,0,0,0-2.34-8.316,115.865,115.865,0,0,1-6.965-15.265c-.871-2.584-1.366-5.295-2.033-7.949-.041-.163-.094-.323-.143-.484Zm83.3,8.71A10.188,10.188,0,1,0,203.782,149.7,10.17,10.17,0,0,0,213.949,160.013Zm-31.4-35.07.048-.006c.034.3.089.6.1.906q.236,5.51.459,11.02c.079,2.026.066,2,2.069,1.989.6,0,.758-.2.775-.781.083-2.714.21-5.426.324-8.139q.1-2.481.215-4.962l.113.007c.19,4.594.379,9.189.572,13.859.753,0,1.4-.023,2.047.008.51.024.7-.166.7-.681,0-.819.057-1.639.09-2.458q.225-5.635.451-11.271h.086c.2,4.759.394,9.518.595,14.341h3.934c0-.785-.018-1.518,0-2.25.134-4.664.283-9.329.41-13.993a2.179,2.179,0,0,0-1.175-2.117,5.956,5.956,0,0,0-2.406-.628c-3.622-.066-7.246-.031-10.871-.025a7.27,7.27,0,0,0-1.1.08,2.807,2.807,0,0,0-2.5,3.075c.13,3.589.236,7.18.351,10.769.054,1.691.1,3.381.156,5.1h3.981C182.173,134.142,182.362,129.543,182.551,124.943Zm24.584,38.611c1.57.76,3.106,1.362,4.49,2.212a3.95,3.95,0,0,0,4.649.013,44.579,44.579,0,0,1,4.514-2.217v7.791c-.382-.175-.686-.307-.984-.452-1.781-.861-3.559-1.73-5.345-2.581a1.007,1.007,0,0,0-.7-.132c-1.732.81-3.446,1.661-5.2,2.518a20.88,20.88,0,0,1,1.072,7.7c-.006,2.552,0,5.1,0,7.807a235.461,235.461,0,0,0,22.2-15.164c-2.438-4.775-6.143-7.766-11.46-8.136-4.17-.291-8.379-.12-12.566-.021a22.6,22.6,0,0,0-3.915.787l3.252,3.811Zm-20.623-19.035c-2.69,0-5.38.016-8.071-.013a1,1,0,0,0-1.036.648,9.881,9.881,0,0,0-.878,6.766,10.177,10.177,0,0,0,17.975,4.157c2.614-3.361,2.85-7.084,1.044-10.941a.985.985,0,0,0-1.049-.63C191.836,144.533,189.174,144.518,186.512,144.518Zm-8.44-4.077v.7c0,1.171,0,1.172,1.128,1.172h15.745v-1.868Z" transform="translate(-130.645 -102.81)" fill="#fff"/>
      <path id="Path_1011" data-name="Path 1011" d="M365.27,377.065c-3.6-1.591-5.482-4.574-6.487-8.192a9.033,9.033,0,0,1,.03-5.111c.479-1.565,1.407-2.147,2.964-1.639,3.137,1.023,6.249,2.128,9.342,3.277a1.571,1.571,0,0,1,1.064,2.417c-.857,2.087-1.744,4.167-2.746,6.187a5.809,5.809,0,0,1-3.147,3.061Z" transform="translate(-262.623 -252.953)" fill="#c59d1a"/>
      <path id="Path_1012" data-name="Path 1012" d="M164.654,246.331c.319.744.59,1.425.9,2.088a5.583,5.583,0,0,0,3.724,3.1,18.135,18.135,0,0,0,7.665.212c7.426-1.075,14.394-3.677,21.247-6.59a280.522,280.522,0,0,0,41.51-22.48,356.319,356.319,0,0,0,42-31.236,169.025,169.025,0,0,0,22.27-22.7c1.115-1.42,2.148-2.9,3.313-4.486a19.069,19.069,0,0,1-2.126,5.663,72.584,72.584,0,0,1-10.183,13.75,186.7,186.7,0,0,1-13.79,13.7,1.521,1.521,0,0,0-.514,1.107A26.562,26.562,0,0,1,278.6,213.7a96.922,96.922,0,0,1-13.45,21.53,11.01,11.01,0,0,1-5.882,3.511c-5.884,1.631-11.689,1.575-17.307-1.08a15.537,15.537,0,0,1-5.982-5.4c-.111-.157-.235-.305-.382-.5-2.356,1.464-4.669,2.93-7.011,4.351-12.2,7.4-24.706,14.223-37.995,19.508A82.559,82.559,0,0,1,174.3,260.54a23.428,23.428,0,0,1-7.681.292c-4.26-.665-6.022-3.271-5.091-7.508A23.657,23.657,0,0,1,164.654,246.331Z" transform="translate(-148.397 -138.403)" fill="#c59d1a"/>
      <path id="Path_1013" data-name="Path 1013" d="M239.147,270.572c-1.274,0-2.547.013-3.821,0-.832-.011-1.208-.4-1.212-1.185a1.056,1.056,0,0,1,1.194-1.206q3.863-.022,7.728,0c.829.005,1.156.395,1.153,1.229a1.019,1.019,0,0,1-1.134,1.165C241.752,270.575,240.449,270.572,239.147,270.572Z" transform="translate(-190.595 -198.617)" fill="#fff"/>
    </g>
  </g>
</svg>
