<svg xmlns="http://www.w3.org/2000/svg" width="37" height="50.194" viewBox="0 0 37 50.194">
  <g id="pdf" transform="translate(-99.773)">
    <g id="Vrstva_x0020_1_15_" transform="translate(99.773 0)">
      <path id="Path_87346" data-name="Path 87346" d="M106.214,0h16.541l14.019,14.825V43.659a6.481,6.481,0,0,1-6.428,6.534H106.214a6.484,6.484,0,0,1-6.441-6.534V6.534A6.484,6.484,0,0,1,106.214,0Z" transform="translate(-99.773 0)" fill="#e5252a" fill-rule="evenodd"/>
      <g id="Group_92048" data-name="Group 92048" transform="translate(6.724 0)">
        <path id="Path_87347" data-name="Path 87347" d="M467.219,0V14.712h14.235Z" transform="translate(-451.177)" fill="#fff" fill-rule="evenodd" opacity="0.302"/>
        <path id="Path_87348" data-name="Path 87348" d="M214.278,455.127v-9.168h3.9a3.233,3.233,0,0,1,2.308.8,3.059,3.059,0,0,1,0,4.264,3.233,3.233,0,0,1-2.308.8h-1.555v3.3Zm2.345-5.293h1.292a1.156,1.156,0,0,0,.815-.251.969.969,0,0,0,0-1.38,1.155,1.155,0,0,0-.815-.251h-1.292Zm5.694,5.293v-9.168h3.248a5.672,5.672,0,0,1,1.806.276,4.857,4.857,0,0,1,1.53.815,3.6,3.6,0,0,1,1.079,1.43,5.668,5.668,0,0,1,0,4.126,3.6,3.6,0,0,1-1.079,1.43,4.86,4.86,0,0,1-1.53.815,5.676,5.676,0,0,1-1.806.276Zm2.3-1.994h.677a3.757,3.757,0,0,0,1.016-.125,3.046,3.046,0,0,0,.865-.414,1.859,1.859,0,0,0,.627-.8,3.562,3.562,0,0,0,0-2.5,1.859,1.859,0,0,0-.627-.8,3.045,3.045,0,0,0-.865-.414,3.764,3.764,0,0,0-1.016-.125h-.677Zm6.936,1.994v-9.168h6.522v1.994h-4.177v1.467h3.336V451.4h-3.336v3.725Z" transform="translate(-214.278 -417.677)" fill="#fff"/>
      </g>
    </g>
  </g>
</svg>
