<svg id="twitter" xmlns="http://www.w3.org/2000/svg" width="44.254" height="44.254" viewBox="0 0 44.254 44.254">
  <g id="Group_430" data-name="Group 430">
    <path id="Path_745" data-name="Path 745" d="M22.127,0A22.127,22.127,0,1,0,44.254,22.127,22.152,22.152,0,0,0,22.127,0ZM32,17.063c.01.219.015.44.015.661a14.487,14.487,0,0,1-22.3,12.2,10.284,10.284,0,0,0,7.54-2.109A5.1,5.1,0,0,1,12.5,24.279a5.113,5.113,0,0,0,2.3-.086A5.094,5.094,0,0,1,10.712,19.2c0-.021,0-.044,0-.064a5.072,5.072,0,0,0,2.306.636,5.1,5.1,0,0,1-1.576-6.8A14.461,14.461,0,0,0,21.94,18.3a5.1,5.1,0,0,1,8.678-4.646,10.166,10.166,0,0,0,3.235-1.236,5.116,5.116,0,0,1-2.242,2.818,10.125,10.125,0,0,0,2.925-.8A10.244,10.244,0,0,1,32,17.063Z" fill="#fff"/>
  </g>
</svg>
